<?xml version="1.0" encoding="utf-8"?>
<!-- Generator: Adobe Illustrator 19.0.1, SVG Export Plug-In . SVG Version: 6.00 Build 0)  -->
<svg version="1.1" id="Layer_1" xmlns="http://www.w3.org/2000/svg" xmlns:xlink="http://www.w3.org/1999/xlink" x="0px" y="0px"
	 viewBox="0 0 2950.3 1209.1" enable-background="new 0 0 2950.3 1209.1" xml:space="preserve">
<g>
	<path display="none" fill="#FFFFFF" d="M-92.1,1407c0-525.8,0-1051.7,0-1577.5c1047.3,0,2094.5,0,3141.8,0
		c0,525.8,0,1051.7,0,1577.5C2002.5,1407,955.2,1407-92.1,1407z M1184.6,760.9c1-3.6,1.4-6.3,2.3-8.8c7.8-20.9,15.7-41.7,23.6-62.5
		c2.8-7.3,5.8-14.6,8.1-22.1c2.3-7.3,0.1-10.5-7.2-10.3c-18.2,0.3-36.4,1.4-54.7,1.4c-10.2,0-15.3,4.9-18.6,13.9
		c-7.2,19.4-14.9,38.7-22.6,58c-5,12.5-11.4,24.6-15.1,37.5c-3.9,13.2-12.6,18.9-24.9,21.1c-7.2,1.3-9.2-0.9-7.9-8.2
		c2.1-11.7,4.3-23.4,6.5-35.1c3.1-16.9-0.2-33.2-5.1-49.2c-1.3-4.1-3.5-8.2-6-11.7c-6.1-8.8-14.5-14.7-25.3-13.4
		c-7.1,0.9-11.9-0.9-17.1-5.2c-24-20.3-53.3-19.4-79-3.9c-33.1,20-54.8,50.4-71.2,84.7c-10.4,21.8-20.3,43.9-32.9,64.6
		c-15.4,25.3-34.6,47.1-58.1,65c-6.4,4.9-14.2,7.8-21.6,11.3c-1.3,0.6-4,0.4-5-0.6c-1-0.9-0.7-3.3-0.6-5c0-0.9,0.7-1.7,1.2-2.5
		c5.7-10.1,11.3-20.3,17.2-30.4c13.8-23.7,27-47.7,34.8-74.1c9.5-32.1,4.4-62.8-14.9-89.8c-13.3-18.6-29-21.4-48.1-12.3
		c-8.2,3.9-15.5,9.5-23.2,14.3c-1.7,1.1-3.4,2.1-6,3.6c0.6-9.1,6.5-12.8,11.9-16.9c21.6-16.7,43.7-33,64.6-50.6
		c28.1-23.7,51.7-51.4,70.7-83c21.3-35.5,39.2-72.5,46.2-113.7c3-18,2.9-36.4-3.4-54.1c-8.1-22.7-30.6-30.8-51.2-20.5
		c-19.5,9.8-33.4,25.6-46.4,42.1c-13.2,16.7-26.9,33.2-37.7,51.8c-13.2,22.8-28.6,44.4-41.4,67.4c-18,32.4-34.5,65.7-51.6,98.6
		c-13.6,26.2-27.2,52.5-40.8,78.7c-6.4,12.3-12.6,24.6-19.1,36.8c-13.1,24.4-28,47.7-43.8,70.4c-13.7,19.6-27.7,38.9-41.5,58.4
		c-1.6,2.3-3.1,4.7-4.4,7.2c-3.2,6.2-2.3,8.6,4.5,10c9.2,1.9,18.5,3.4,27.8,5c12.6,2.3,25.3,4.6,37.9,6.9c7.4,1.4,12.7-1.4,16.6-7.7
		c5-8,10.7-15.6,15.6-23.6c25.5-41.4,55.2-79.6,88.4-115.1c7.3-7.8,15.3-14.9,23.2-22.2c2.4-2.2,5.5-3.6,8.2-5.4
		c0.6,0.4,1.2,0.9,1.8,1.3c-0.9,3.1-1.4,6.4-2.8,9.2c-11.6,24-23.1,48.2-35.3,71.9c-8.4,16.4-12.4,33.6-12.1,51.8
		c0.3,18.3,5,35.4,15.8,50.5c16.7,23.4,43.3,31.5,70.3,15.9c18.2-10.5,33.6-24.2,47.7-39.6c5.9-6.4,11.7-12.8,18.8-20.5
		c2.4,7.2,4.1,12.8,6.2,18.3c8.6,22.9,21.6,42.4,42.5,56.2c27.9,18.3,59.1,14,80.9-3.5c20.4-16.3,36.8-36.1,49.7-58.8
		c6.5-11.5,12.2-23.4,18.7-34.9c1.5-2.7,4.4-6.2,7-6.6c6.4-1,12.9,0.5,19.7,4.6c-4.8,11.9-9.3,23.5-14.1,35
		c-8.8,21.2-17.8,42.3-26.5,63.5c-3.2,7.8-1.5,11,6.3,11.7c19.4,1.7,38.9,2.7,58.3,4.4c7.9,0.7,12.3-2.5,15.2-9.6
		c9.7-23.9,20-47.5,29.5-71.4c6.3-16,14-30.9,26.3-43.2c8.7-8.6,18.2-16.1,30-22.3c1.9,3.6,3.5,6.2,4.6,9c2,4.9,4,9.9,5.7,15
		c4.7,13.9,14.8,22.5,27.9,27.5c4.1,1.6,9.3,1.7,13.7,1c7.6-1.3,15-3.8,22.6-5.8c0.6,0.7,1.3,1.4,1.6,2.2c0.5,1.2,0.8,2.4,0.9,3.7
		c0.3,16,6.3,30.7,9.7,46c2.3,10.4,7.2,19.4,13,28c9.5,14.1,27,22.2,45.2,18.4c11.4-2.4,20.3-8.8,26.7-18.1
		c7.1-10.3,13-21.4,19.6-32.2c1.7-2.8,2.3-6.8,7.9-6.7c1.8,4.5,3.8,9.4,5.6,14.3c5.8,16,21.4,28.9,42.9,21.2
		c6.1-2.2,12.1-5.3,17.5-8.9c15.4-10.3,27.4-24.2,37.7-39.3c11.5-16.9,21.8-34.6,32.6-51.9c1.6-2.5,3.4-4.8,6.3-8.8
		c2.1,5.4,3.7,8.7,4.7,12.2c3.7,14.3,10,27,20.4,37.7c11.7,12,28.3,17.9,46.4,8.8c10-5,18.3-12.1,26-20.1
		c22.7-23.5,40.4-50.6,57.1-78.4c1.7-2.8,3.7-5.4,5.9-8.5c5.1,3.7,5.6,8.6,7.3,12.9c4.2,11.1,10.4,21.2,20.4,27.5
		c15.2,9.6,31.2,7.9,46.5-0.5c4.9-2.7,9.4-6.3,13.7-10c24.6-21.3,46.4-45.2,65.8-71.3c2.3-3.1,4-8.7,8.8-7c2.4,0.9,4,6,4.6,9.4
		c1.9,9.5,6.4,17.8,12,25.3c6.6,8.9,15.4,15.4,26.8,15.8c14.7,0.5,28.7-2.7,41.2-11c10.9-7.2,19.7-16.5,27-27.3
		c2.3-3.5,3.9-8.1,9-8.9c0.9,0.6,1.9,1,2.3,1.7c1.2,1.9,2.1,3.8,3.1,5.8c9.3,19.6,22.2,26.9,43.7,25.2c8.9-0.7,17.2-3.3,25.3-7
		c3-1.4,6.5-2.5,9.8-2.4c7.5,0.1,14.9,1.3,22.4,1.5c15.4,0.4,30.8-0.7,46.1,0.8c9.8,1,15.3-2.1,20.3-9.7
		c11.3-17.4,23.1-34.5,34.7-51.7c13.9-20.8,33.3-34,57.3-40.4c6.5-1.8,8.4-0.7,10.6,5.6c0.3,0.9,0.4,1.9,0.7,2.7
		c7.5,19,18.8,33.5,41.5,34.3c1.2,0,2.5,0.4,3.7,0.7c6.6,1.7,7.2,2.4,7,9c-0.1,4.7-0.2,9.5-0.8,14.1c-2.3,17.9,17.5,49.3,38.3,55.8
		c14.5,4.5,28.9,5.7,43.6,2.1c17.4-4.3,32.4-13.3,46.7-23.8c4-2.9,7.5-6.7,13.9-6.9c2,4.1,4.2,8.2,6,12.5
		c10.9,26,31.3,39.5,58.4,43.3c10.8,1.5,21.9,1.4,32.9,0.9c26.3-1.4,50.2-10.6,72.4-24.2c12.3-7.5,24.3-15.6,36.5-23.4
		c5-3.2,7.2-2.4,9.2,3.1c1.2,3.2,2.1,6.6,3.6,9.7c18.9,38.4,50.1,59.3,92.3,64.4c3.1,0.4,6.3,0.3,9.4-0.1
		c27.9-3.7,51.9-14.7,68.9-38.1c4-5.5,9.2-7.8,15.8-9.1c7.3-1.4,14.5-3.8,21.6-6.2c12.5-4.1,22.7-12.2,33.1-19.8
		c12.6-9.2,22.5-21,31.1-33.9c3.7-5.7,3.6-8.2-0.5-13.6c-1.1-1.5-2.4-2.9-3.7-4.3c-10.2-11.5-10.5-11.7-19.9,0.6
		c-12.3,16.2-26.1,30.7-45.1,39.1c-3.3,1.4-6.3,4.6-10.9,1.4c0.2-2.2,0.6-4.6,0.7-7c0.3-7.5,1.5-15.1,0.6-22.5
		c-3.8-32.1-14.7-61.6-34.1-87.7c-3.4-4.5-6.3-9.4-9.3-14.2c-3.4-5.6-3.3-7.6,0.8-12.7c1-1.2,2-2.4,3.1-3.5
		c11-11.3,13.7-24.9,11.2-40c-1.6-9.5-6.1-16.6-15.5-19.4c-9.3-2.8-18-1.6-25.4,5.3c-13.3,12.3-17.6,27.9-15.4,45.3
		c0.9,7.2,0.5,12.8-5,17.9c-12.3,11.3-24,23.2-36.6,34.1c-9.7,8.4-20.3,15.9-30.7,23.5c-2.1,1.5-5.8,3.1-7.5,2.3
		c-7.5-3.9-10.9,0.4-14.6,5.7c-11,16.1-22.8,31.5-37.6,44.5c-24.4,21.5-51.2,38.4-82.7,47.4c-16.6,4.7-33.2,6.4-50.3,3.1
		c-13.8-2.7-18.1-9.9-11.4-22.1c7.4-13.5,16.4-26.1,24.8-38.9c2.2-3.3,5.7-4.4,9.9-4.2c9.7,0.5,19.5,1,29.2,0.9
		c17.5-0.1,34.5-3.2,49.9-11.8c25.3-14,40.7-34.1,38.8-64.6c-0.5-9.1-3.7-17.1-7.8-25c-9.2-17.7-23.2-30.1-43-33.5
		c-18.8-3.3-37.7-0.9-55.4,6.9c-27.1,12-50.4,29.2-69.5,52.1c-12.4,14.9-22.9,31.1-27.2,50.1c-3.2,14.1-9.1,25.9-19.3,35.8
		c-16.7,16.4-35.6,28.9-59.2,32.8c-5,0.8-9.2,0.7-13.8-4.2c3.9-6.6,7.4-13.5,11.7-20c8.5-12.8,17.5-25.4,26.1-38.1
		c18.4-27,36.8-54.1,55.1-81.2c7.4-11,14.4-22.1,21.4-33.3c3.7-5.9,2.1-10.1-4.5-11c-19.9-2.8-39.9-5-59.7-7.8
		c-7.6-1.1-12.3,2-16.4,8.1c-18.1,26.5-36.4,52.8-54.8,79.1c-7.8,11.1-17.6,19.5-31.2,22.9c-11.2,2.7-16.2,0.9-21.6-9.3
		c-5-9.3-3.9-12.2,6.2-16.1c1.8-0.7,3.6-1.2,5.3-1.9c16.2-6.5,31.1-15,42.9-28.3c9.5-10.7,14-23.1,12.9-37.3
		c-1-14.4-12.5-25.9-26.2-26.2c-8.5-0.2-17.3,1.3-24,6.9c-7.2,6-14.5,12.3-20.1,19.7c-9.4,12.5-18.6,25.3-24,40.4
		c-2.9,8-11,10.6-19.2,7c0.4-1.1,0.5-2.4,1.1-3.4c4.8-8.1,9.6-16.3,14.6-24.2c7.7-12.2,15.8-24.2,23.4-36.6c4.6-7.6,2.8-11-6.1-11.5
		c-20.1-1.1-40.2-1.6-60.3-2.6c-6.4-0.3-10.4,2.1-13.9,7.5c-18.8,29-37.9,57.9-57,86.7c-3.6,5.5-7,11.4-11.5,16.1
		c-17.9,18.5-35.8,37.1-54.7,54.6c-9.1,8.4-20.4,14.6-31,21.3c-2.8,1.8-6.7,2-12.4,3.6c1.9-5.2,2.6-8.2,4-10.7
		c8-14.2,16-28.5,24.5-42.5c20.7-34.2,41.7-68.1,62.5-102.2c4.8-7.8,9.6-15.5,14.3-23.3c4.8-8.1,3.2-11.4-6.2-12.2
		c-6.3-0.5-12.6-0.3-18.9-0.3c-14.5,0-29-0.2-43.4,0.4c-4.1,0.2-8.7,1.8-12.1,4.2c-7.5,5.5-7.3,5.9-14.4-0.7
		c-6.2-5.8-13-10.1-21.6-10.2c-7.2,0-14.6-0.6-21.5,1c-19.1,4.4-36.9,12.4-53.4,22.9c-16.6,10.5-31.2,23.3-44.1,38.2
		c-10.3,11.9-20.4,24.1-25.9,39.2c-8.8,24.2-22.5,45.8-37.3,66.4c-15.8,21.9-33.6,42.4-51.2,62.9c-6.7,7.8-15,14.3-23.3,20.5
		c-6.1,4.6-11.4,2.2-13.7-5.1c-0.9-2.9-1.6-6.3-1.1-9.2c1.4-8.4,2.4-17,5.3-24.8c8-21.8,16.5-43.5,25.4-64.9
		c8.5-20.3,17.9-40.2,26.7-60.3c2.6-6,6.2-10.7,11.6-14.4c8.3-5.7,16.5-11.6,24.3-17.9c33.8-27.5,65.1-57.4,94-90
		c31.2-35.1,56.5-73.9,76.1-116.4c4.8-10.5,8.3-21.8,10.5-33.1c2.2-11.6,2.9-23.7-4.3-34.7c-7.5-11.6-21.1-19-33.4-17.1
		c-13.2,2.1-26.1,6.2-36.7,14.1c-17.1,12.7-34,26.1-49,41.2c-16.8,16.9-31.7,35.7-46.9,54.1c-7.3,8.9-13.2,19.1-20,28.5
		c-4.6,6.4-9.6,12.4-14.4,18.6c1.9-7,4.6-13.3,7.9-19.3c11-19.5,19.5-40.1,26.5-61.3c4-12.2,5.6-24.5,4.8-37.2
		c-1.2-20-17.7-33.7-37.8-32.3c-14,1-26.2,6.3-37.3,14.4c-32.4,23.8-56.5,55.4-80.2,87.2c-10.7,14.3-20.5,29.3-30,44.5
		c-11.3,18.2-22.3,36.5-32.3,55.4c-12.6,23.8-23.9,48.4-36.1,72.5c-14.8,29.1-28.6,58.7-40.2,89.3c-9.7,25.5-19.6,51-23.5,78.3
		c-0.3,2.2-1.1,4.3-1.9,6.3c-11.7,28.9-27,56-43.2,82.6c-8.2,13.4-17.4,26.2-26.4,39.1c-6.3,9-13.9,16.7-23.8,22
		c-3.3-3.4-1.5-6.5-0.6-9.3c2.6-7.7,5.7-15.3,8.3-23c7-20.5,13.5-41.2,20.7-61.6c9.8-27.8,19.9-55.6,30.1-83.2
		c9.4-25.3,19.3-50.5,28.8-75.8c1.2-3.3,2.6-7.9,1.3-10.5c-2.1-4.1-7.2-2.4-11.2-1.9c-0.3,0-0.6,0.2-0.9,0.3
		c-18.5,3.4-37,7-55.6,10.2c-4.8,0.8-8,3-10.1,7.4c-1.4,2.9-3.5,5.4-5.9,9c-3-2.8-5-4.6-6.9-6.6c-10.2-11-22.4-13.9-36.8-10.1
		c-28.6,7.6-51.6,24.5-72.3,44.4c-18.5,17.7-30.7,40.4-44.7,61.7c-0.7,1-1.2,2.2-1.5,3.4c-3.4,10.8-6.5,21.7-10.2,32.3
		c-4.4,12.9-11.6,24.4-20.3,34.9c-2.2,2.6-5,4.8-7.9,6.7c-8.9,6.2-13.7,5-18.4-5.1c-2.3-4.8-4.1-9.9-5.9-14.9
		c-2.7-7.7-2.1-9.7,5.3-13.7c22.6-12.4,38.8-30.8,50.4-53.4c8.7-16.9,11.3-34.7,4.2-52.8c-6-15.3-20.5-26.3-39.3-15.6
		c-10.1,5.8-17.4,14.2-22.9,24.4c-11.4,21.2-19.1,43.7-23.9,67.3C1202.4,755.7,1197.2,759.6,1184.6,760.9z M62.7,923
		c6,2.3,10.3,4.1,14.7,5.7c13.1,5,26.3,7.1,40.5,4c36.1-7.9,53-40.4,45.9-73.8c-4.9-23.3-18.6-40.9-38.8-53.5
		c-25.2-15.8-52-19.9-80.3-10.4c-14.3,4.8-26.3,13.6-34,27.1c-13.2,23.3-12.5,48.4-7.2,73.4c6.8,31.9,26.3,55.9,51.1,76
		c16.9,13.6,36.4,22.2,56.7,29.3c12.5,4.3,25.4,7.2,38.6,7.6c21.1,0.6,42-0.9,62.7-5.7c29.3-6.8,54.1-19.6,70.5-46.1
		c11-17.8,18.5-37.1,25.1-56.8c3.1-9.2,5.9-18.6,9.1-27.8c3.9-11,4-11.1,15.3-10.9c32.1,0.7,63.1-4.5,93.2-15.6
		c0.9-0.3,1.7-0.8,2.6-1.1c17.1-5.3,32.1-14.5,45.7-25.7c28.8-23.5,47.3-54,59.8-88.8c10.9-30.4,10.4-61.1,5.1-92.1
		c-3.4-19.7-10.8-38.2-21.7-54.9c-8.4-12.8-17.4-25.8-28.6-36.1c-25.9-24-56.2-41.1-91.3-48.4c-9.9-2.1-11.2-4.3-9.3-14.5
		c2-10.5,4.3-20.9,6.4-31.4c1.8-8.6,2.5-9.2,11.4-11.1c24.6-5.2,48.4-12.2,71.4-22.7c32.2-14.7,59.9-35.7,86.4-58.5
		c21.7-18.6,39.2-40.8,53.8-65.3c6.4-10.8,12.7-21.8,18-33.2c5.5-11.9,9.9-24.4,14.5-36.7c4.7-12.7,7.6-25.8,7.9-39.5
		c0.2-9.4,1.6-18.8,3-28.1c0.8-5.4,2.7-6.1,8-3.9c4.9,2,9.7,4.5,14.8,6.2c18.8,6.2,36.8,14.2,54.1,23.9
		c15.4,8.6,30.5,17.6,45.7,26.4c2.2,1.3,4.1,2.9,6.2,4.3c9.2,6,18.4,11.9,27.6,17.9c6.6,4.2,13.3,8.2,19.9,12.5
		c6.8,4.4,13.4,9.2,20.3,13.4c5.9,3.5,12.8,5.7,18.2,9.8c12.3,9.3,26.5,14.9,40.7,19.3c20,6.2,40.9,9.5,62.2,6.9
		c2.2-0.3,4.4-0.1,6.6,0.1c16.5,1.1,32.6-1.4,48.6-4.7c18.5-3.8,35.4-12.2,53.4-17.6c41.2-12.5,77.3-35.6,113.3-58.5
		c2.1-1.3,3.8-3.3,5.7-5c1.9-1.7,3.6-3.6,5.7-4.9c23.6-14.4,42.7-34.1,62.4-53c8.2-7.9,11-17.6,11.2-29c0.2-12.2-9.5-19.6-21.8-15.3
		c-7.3,2.6-14.4,6.4-20.9,10.7c-17.6,11.5-34.7,23.8-52.2,35.4c-5.2,3.4-11.4,5.1-16.9,8.1c-15.1,8.2-29.6,17.9-46.9,21.4
		c-2.1,0.4-4.1,1.6-6.1,2.5c-17.8,8.7-36.8,13.6-56.2,17.5c-28.6,5.7-56.9,4.2-85.3-0.9c-9.2-1.7-19-2.2-27.5-5.8
		c-16.1-6.9-31.7-15.2-47.1-23.6c-10.2-5.5-19.9-12.1-29.7-18.3c-16.5-10.3-32.9-20.9-49.5-31.1c-11.2-6.9-22.2-14.6-34.2-19.8
		c-17.2-7.5-34.1-15.9-52.6-20.1c-6.1-1.4-11.9-4.3-18-5.2c-21.3-3.4-42.6-3-63.7,2.1c-7.6,1.9-13.5,0.1-17.8-6.8
		c-4-6.5-10.2-10.7-17.4-12c-8.6-1.5-17.6-2.8-26.2-2c-17,1.5-33.2,6.8-48.7,13.7c-20,9-36.6,22.5-51.9,38.4
		c-15.9,16.6-28.7,35-40.1,54.6c-15.7,26.9-27.5,55.7-38.3,84.9c-8.3,22.4-14.2,45.5-19.3,68.9c-1.8,8.3-2.7,9.7-11.3,11.3
		c-13.6,2.5-27.1,5-40.7,7.2c-20.8,3.4-41.7,5.9-62.3,9.8c-27.1,5.1-54.2,10.6-81.1,16.8c-18.4,4.2-36.2,10.6-52.5,20.2
		c-17.3,10.2-31.4,23.9-44,39.4c-16.6,20.4-30.6,42.1-39.5,67C54,525,47.8,559.7,50.9,595.7c0.6,6.9,2,13.7,2.4,20.6
		c1.3,25.6,9.8,49.3,19.6,72.4c8.6,20.3,20.7,38.8,34.1,56.3c4,5.2,8,10.5,12.6,15.3c19.2,19.6,39.5,37.8,62.7,52.6
		c21.1,13.4,43.8,23.1,67.9,29.7c9.1,2.5,18.2,4.7,27.3,7c9.7,2.5,10.3,3.4,8.3,12.8c-1.9,8.9-3.7,17.8-5.8,26.7
		c-5.2,22.4-17.8,39.8-35.7,53.9c-8.4,6.6-16.3,13.8-24.6,20.5c-3.4,2.7-6.8,5.8-10.7,7.4c-19.3,8.1-39.1,12.3-60.6,10.1
		c-24.3-2.4-45.6-10.6-64.8-25.5c-9.2-7.2-15.3-16.5-20.8-26.5C62.5,927.9,62.9,926.2,62.7,923z M486.2,996.6
		C486.2,996.6,486.2,996.6,486.2,996.6c0.1,14.8,0,29.6,0.1,44.4c0,3.7,0.5,7.5,1.3,11.2c1.5,6.9,3.2,8.3,10.2,8.6
		c20.1,0.8,40,3.4,59.8,6.8c18.5,3.2,37.2,5.9,55.8,8.2c10.6,1.3,21.3,1.3,31.9,2.5c19.3,2.1,38.6,4.7,57.9,7.1
		c11.8,1.5,23.6,3.3,35.5,4.2c18.2,1.4,36.4,2.2,54.5,3.4c8.1,0.5,16.3,1.4,24.4,1.6c21,0.5,42,0.8,63,1c26.4,0.2,52.7,0.5,79.1,0.1
		c15.4-0.2,30.8-2.3,46.1-2.1c28.1,0.5,55.6-4.4,83.4-6.6c4.3-0.3,8.8,0.2,13.1-0.5c24.1-4.2,48.8-3.6,72.9-8.2
		c26.5-5.1,53.4-8.1,79.9-12.8c23.8-4.3,47.3-9.7,70.9-14.7c19.6-4.2,39.4-7.7,58.7-13c31.5-8.6,63.1-17,93.8-27.9
		c34.6-12.3,69.3-24.1,104.4-35c19.1-6,38.3-11.8,57.5-17.5c12-3.5,24.1-6.7,36.2-9.8c7.3-1.9,14.6-3.5,22-5.1
		c8.6-1.8,17.2-3.4,25.8-5.2c8.6-1.8,16.2-5.9,25.9-5.5c10.9,0.4,21.9-4.4,32.9-6.9c16.8-3.7,33.6-7.6,50.5-11
		c16.6-3.4,33.2-6.3,49.9-9.3c11.4-2.1,22.9-4.1,34.3-5.9c20.7-3.2,41.7-4.9,62.1-10.4c7.8-2.1,16.1-3.1,24.2-3.8
		c20-1.8,40-3.3,60.1-4.8c18.5-1.4,36.9-2.8,55.4-4c5.6-0.4,11.3,0.2,17-0.2c11.6-0.8,23.1-2.6,34.7-2.6c33.3,0,66.6,0.5,100,1.1
		c21.4,0.4,42.8,0.1,64,3.4c7.1,1.1,11.2-2.3,12.8-9.5c1-4.3,1.6-8.7,2-13c1.8-18.8,3.5-37.5,5.3-56.3c0.5-5.3-0.7-7.9-6-8.9
		c-6.1-1.1-12.5-2-18.7-1.7c-18.8,0.9-37.7,2.2-56.5,3.8c-13.1,1.1-26.2,2.7-39.2,4.8c-9.9,1.6-19.5,4.6-29.4,6.4
		c-20.7,3.8-41.4,7.2-62.1,11c-12.3,2.3-24.5,5.7-36.8,7.8c-22.3,3.7-44.1,9.3-65.9,15.5c-14.2,4-28.5,7.4-42.9,10.7
		c-20.2,4.6-40.4,8.7-60.6,13.4c-5.5,1.3-10.7,5.1-16,5.1c-14.4-0.1-27.8,5-41.6,7.5c-13.3,2.4-26.3,6.1-39.4,9.3
		c-15.8,3.8-31.6,8.1-47.5,11.3c-17.5,3.4-33.6,8.6-51.9,12.1c-1.5,0-3,0.9-4.5,1.3c-12.8,3.3-25.5,6.9-38.3,9.7
		c-24.5,5.5-49.1,10.2-72.8,18.8c-19.7,7.2-39.7,13.5-60.6,16.7c-7.4,1.2-14.6,3.5-21.8,5.6c-15.1,4.4-29.9,9.9-45.1,13.3
		c-22.6,5.1-45.5,9.2-68.4,13c-16.7,2.8-33.5,4.9-50.4,6.5c-19.1,1.7-38.2,2.4-57.3,3.6c-7.5,0.5-15,1.4-22.5,1.7
		c-28,0.8-55.9,1.5-83.9,2.1c-4.1,0.1-8.2-0.2-12.2-0.5c-5.3-0.4-10.6-1.3-15.9-1.3c-19.8,0-39.7,0.2-59.5,0.3
		c-5.3,0-10.7-0.2-16-0.6c-27.3-1.8-54.5-3.7-81.8-5.4c-16-0.9-32-0.9-48-2.2c-15.3-1.2-30.6-3.6-45.8-5.4
		c-40.2-4.8-80.8-5.2-120.9-11.6c-34.1-5.4-68.4-9.7-102.5-15c-15.8-2.4-31.4-6.1-47.1-9.2c-17.5-3.5-35.2-6.3-52.5-10.7
		c-33.7-8.6-67.2-18.3-100.8-27.3c-6-1.6-12.2-2.9-18.4-3.7c-6.9-0.9-8.5,0.5-9.1,7.3c-0.4,4.4-0.7,8.8-0.5,13.2
		c0.4,11.6,1.4,23.2,1.7,34.8C486.4,973.3,486.2,984.9,486.2,996.6z M2386.2,1215.9c-8.2,0.8-15.8,1-23.1,2.5
		c-8.3,1.6-12.6,7.7-12.9,16.3c-0.3,8.8,3.3,14.9,11.2,17.6c3.5,1.2,7.4,1.6,11.1,1.6c13.2,0.2,26.4,0.1,39.7,0.1
		c5,0,10.1,0.2,15.1-0.1c10.1-0.7,16.4-6.9,17.4-16.6c0.9-9.5-4.3-16.6-14.2-19.3c-2.4-0.6-4.8-1.3-7.5-2.1c0-48.3,0-96.3,0-144.4
		c1.3-0.3,2.1-0.6,3-0.8c11.2-2.6,16-8.9,15.4-20.1c-0.6-9.8-6.3-16.4-16.9-16.9c-15.3-0.7-30.7-0.2-46.4-0.2
		c-15.7,37-31.1,73.6-47.3,111.8c-16.6-38.4-32.4-75-48.2-111.8c-16,0-31.4-0.6-46.7,0.2c-10.5,0.5-15.7,7.2-16.1,17.4
		c-0.4,11.1,4.1,16.9,14.9,19.4c1.1,0.3,2.3,0.6,3.2,0.9c0,48.4,0,96.4,0,144.6c-3.3,0.8-6.1,1.3-8.8,2.1
		c-8.1,2.4-12.3,8.1-12.5,16.7c-0.2,9.2,3.9,15.6,12.1,18c3,0.9,6.2,1,9.3,1c16.7,0.1,33.4,0.1,50,0c2.8,0,5.7,0,8.4-0.6
		c9.4-2,14.6-8.8,14.4-18.2c-0.2-9.1-5.2-15.1-14.5-17c-4-0.8-8.1-0.9-12.1-1.3c-3-0.3-6-0.4-8.9-0.5c-2.1-15-1.4-96.4,1.2-103.5
		c13.1,30.3,25.8,59.9,38.5,89.4c10.8,0,20.8,0,31.3,0c12.8-30,25.5-59.9,38.2-89.8c0.5,0.2,1.1,0.3,1.6,0.5
		C2386.2,1147,2386.2,1181.1,2386.2,1215.9z M1999.4,1164.5c11.4-12.9,19.6-25.9,32.5-34.8c2.3-1.6,5.1-2.3,7.7-3.5
		c14.6-7.1,29.5-13.9,43.8-21.5c18.3-9.8,35-22.1,50.7-35.7c11-9.5,21.2-19.8,28-32.8c1.9-3.5,3.5-7.5,3.9-11.5
		c1.3-10.9-5.3-18-16.3-18.4c-8.7-0.3-16.7,2.3-24.6,5.7c-31.3,13.3-56.3,35.3-80.3,58.5c-19.2,18.6-37.2,38.3-55.8,57.5
		c-2.1,2.1-4.6,3.8-7.6,6.3c-1-3.8-1.6-6.2-2.3-8.5c-2.7-9.3-7-12.2-16.6-11.5c-6.6,0.5-12,3.4-16.6,8.1c-3,3.1-6.1,6.2-9.5,9.6
		c-1.1-1.8-1.9-2.7-2.3-3.8c-2.8-7.6-7.9-11.7-16.2-12c-2.7-0.1-5.3-1.8-7.9-2.7c-2.9-1-5.8-2.6-8.8-2.9
		c-13.7-1.1-26.9,0.7-39.3,7.2c-15.8,8.3-29.4,19.5-40.7,33.1c-8.2,9.9-15.3,21.1-14.9,34.8c0.1,4.8,1.1,10.3,3.7,14.1
		c5.9,8.6,14.4,14.4,25.4,13.8c7.1-0.4,14.4-1.7,21-4.3c18.2-7.4,34.2-18.5,48.5-32.1c3.5-3.4,7-5.9,12.3-5.5
		c5.2,0.3,10.5-0.4,15.7-0.6c3.9-0.2,8.1-2,12.2,2.9c-3.3,3.5-6.6,7-9.9,10.5c-13.1,13.6-26.1,27.3-39.4,40.7
		c-14.4,14.5-29.2,28.6-43.7,43c-2.1,2.1-3.6,4.7-5.5,7.2c4.9,4.8,10.2,3.6,15,3.7c6,0.1,12-0.7,17.9-0.2c6.6,0.6,11.3-1.8,15.8-6.5
		c8.9-9.3,18.3-18.2,27.4-27.3c11.1-11.1,22.2-22.2,33.3-33.4c7.7-7.8,15.3-15.8,22.9-23.7c3-3.2,6.7-4.2,11-4.3
		c7.2-0.2,14.4-0.6,21.6-1.5c16.4-2.1,29.5-10.3,39.8-23c2.3-2.9,4-5.9,0.7-9.2c-3-2.9-6.2-2.6-9.4-0.3c-1.5,1.1-2.9,2.5-4.5,3.5
		c-4.8,3-9.4,6.4-14.4,8.9C2017,1165.4,2009.7,1166.8,1999.4,1164.5z M2775.8,1216.8c-2-20.1-1.2-138.7,0.9-145.4
		c12.1,0,24.2,0,37,0c0,12.2-0.2,23.8,0.1,35.4c0.1,4.7,0.7,9.5,2.1,13.9c2.2,6.8,7.9,10.4,15.2,10.5c8,0.2,13.7-3.1,16.3-10.2
		c1.3-3.5,2-7.3,2.1-11c0.2-23.9,0.2-47.9,0.2-71.8c0-1.2-0.4-2.4-0.6-3.5c-9.2-1.9-176.7-1.7-184,0.2c-0.1,1.1-0.4,2.4-0.5,3.6
		c0,23-0.1,46,0,69c0,2.8,0.4,5.7,1,8.4c2.3,10.9,8.1,15.7,18.1,15.3c9.4-0.4,15.4-6.3,16.4-17.2c0.7-7.5,0.5-15.1,0.6-22.6
		c0.1-6.5,0-13.1,0-20c13.2,0,25.2,0,37.3,0c0,48.6,0,96.6,0,145c-2.5,0.2-4.3,0.4-6.2,0.5c-8.8,0.4-17.7,0.1-26.3,1.5
		c-11.6,1.9-17.1,12.4-13.3,23.6c2.7,8.1,9,12.1,20.2,12.1c29.6,0.1,59.2,0.1,88.8,0c3.1,0,6.3-0.4,9.3-1.3
		c8.5-2.6,12.7-8.9,12.4-17.8c-0.3-8.6-5.2-14.8-13.9-16.6c-4.3-0.9-8.7-1.2-13.1-1.4C2789.4,1216.6,2782.9,1216.8,2775.8,1216.8z
		 M2524.3,1216.8c-11.3,0-21.7-0.1-32.1,0.1c-4.4,0.1-8.8,0.5-13.1,1.3c-8.9,1.9-13.5,7.6-13.9,16.5c-0.3,9.3,4.2,15.9,13,18.3
		c3,0.8,6.2,1,9.3,1c36.8,0.1,73.7,0.1,110.5,0c3.4,0,7-0.3,10.2-1.2c8.6-2.5,12.7-8.6,12.5-17.7c-0.2-8.9-4.9-14.9-13.6-16.8
		c-4-0.9-8.1-1.3-12.1-1.4c-8.8-0.2-17.6,0-26.4-0.1c-2.4,0-4.7-0.6-6.9-0.9c-1.9-15.5-1.2-138,0.9-145.1c11.8,0,23.7,0.1,35.7-0.1
		c3.7-0.1,7.6-0.5,11.1-1.6c8-2.6,11.7-8.7,11.5-17.4c-0.2-8.5-4.7-14.6-12.8-16.5c-4.9-1.1-10-1.6-14.9-1.7
		c-33.4-0.1-66.7-0.1-100.1,0c-4.7,0-9.4,0.5-14,1.5c-8.8,1.9-13.4,7.8-13.7,16.7c-0.3,11.3,6.5,18.5,18.8,18.9
		c11,0.4,22,0.1,33,0.2c2.4,0,4.8,0.4,7.2,0.7C2524.3,1119.9,2524.3,1167.7,2524.3,1216.8z M1073.1,70c0.9,0.7,1.8,1.5,2.7,2.2
		c-2.1,4.3-4.3,8.7-6.4,13c-8.1,16.7-3.3,30.1,8.9,40.5c5.7,4.8,12.7,6.2,19.3,2.2c5.3-3.1,10.4-7,14.9-11.2c8.4-8,9.2-8.2,15.5,1.1
		c3.3,4.9,7.1,8.7,12.8,10.5c9.9,3.1,20.1,3.7,29.6,0.2c16.9-6.3,30.4-17.5,39.9-33.1c1.7-2.8,2.8-6.5,2.6-9.7
		c-0.1-2.2-2.5-5.2-4.6-6.2c-1.4-0.6-4.6,1.2-6.1,2.7c-2.4,2.4-4,5.6-6,8.5c-10.2,14.5-25.3,21.1-41.6,25.5c-5.8,1.6-9-2.5-7.5-8.2
		c1.5-5.9,5.8-9.5,12-10.3c4.7-0.6,9.5-0.8,13.9-2.2c13.8-4.2,26.7-17,18.8-34.7c-5.4-12.2-21.6-18.1-34.6-12.7
		c-14.3,6-25.3,15.4-33.1,29.3c-5.4,9.8-13.3,18.2-20.4,27c-1.5,1.9-4.3,2.7-6.4,4c-0.5-0.5-1-1-1.5-1.5c0.8-2.2,1.6-4.4,2.4-6.6
		c2.8-7.6,6.8-15,8.3-22.9c2.3-12.2-0.6-23.1-12.3-30.1c-2-1.2-3.8-2.9-6.6-5.1c4.3-3.2,7.6-6.1,11.3-8.2
		c15.7-8.7,26.6-22.1,35.2-37.2c5-8.8,6.9-18.6,4-29.1c-2-7.3-6.7-10.3-13.3-11.4c-9.3-1.4-17.6,2.1-24.4,7.9
		c-19.4,16.4-34.4,36.3-46.3,58.7c-12.8,24.1-26.4,47.8-39.6,71.7c-3.3,6-7,11.9-10.1,18c-3.1,6-1.4,9.5,5.5,10.6
		c4.3,0.7,8.9-0.1,13.2,0.7c9.9,1.8,14.4-3.2,18.8-11.5c6.4-12.2,14.5-23.4,22.4-34.8C1066.5,74.5,1070.2,72.5,1073.1,70z
		 M1019-20.1c0.1,0.9,0.2,1.7,0.4,2.6c-2.5,1.6-5.1,3.3-7.6,4.9c-10.8,6.5-21.9,13.2-28.8,23.9c-9,13.9-16.8,28.7-24.7,43.3
		c-4,7.4-7,15.4-10.8,23c-9.5,19.1-23.5,27.8-45.9,24.5c-9.8-1.5-10.6-2.1-10.1-11.7c0.4-8.5-2.6-15.4-9.3-20.6
		c-5.6-4.4-14.2-4.5-19.4-0.6c-4.9,3.7-6.5,11.2-3.6,18.1c3,7.1,7.6,12.9,13.9,17.6c7.2,5.4,15.4,8.3,23.9,10.7
		c24.5,7,47.2,3.6,68.1-11c14.2-9.9,22.4-24.1,29.7-39.4c8.1-17,17.1-33.6,26.2-50.1c6.5-11.9,16.4-19.8,30.4-21.1
		c3.6-0.3,6.3-1.7,6.7-5.4c0.6-4.9,3.6-5.9,7.7-6.6c14.1-2.3,21.7-11.7,25.9-24.5c1.6-4.9-0.2-9-4.6-9.4c-2.2-0.2-5,0.8-6.7,2.2
		c-5.7,4.6-12,6.7-19.3,5.7c-15.5-2.2-31-4.3-46.5-6.7c-21.7-3.3-43.1-9-65.3-4.3c-28.6,6.1-51.8,18.6-61.8,48.5
		c-7.5,22.4,4.6,47.4,27,54.6c15.1,4.9,31.1-1.9,37.9-16.4c8.1-17.2,5.5-33.6-4-49.4c-1.1-1.8-2.6-4.1-4.4-4.6
		c-2.4-0.7-5.6-0.7-7.7,0.4c-1,0.6-0.7,4.4-0.3,6.6c0.3,1.7,1.8,3.3,2.7,4.9c6.7,11.1,5.6,22.5,0.4,33.4
		c-6.6,13.9-22.7,16.6-32.6,5.5c-3.5-3.9-5.7-9.9-6.5-15.2C897.1-5,910.4-21.6,926.7-27c8.4-2.8,16.9-4.8,25.9-3.7
		c17.4,2.1,34.9,4.1,52.3,6.5C1009.7-23.6,1014.3-21.5,1019-20.1z M2535.9,466.8c0.5-9.1-2.2-17.7-6.4-25.3
		c-6.3-11.3-16.2-18.6-29.6-18.8c-13.1-0.2-23.3,6.2-28.9,17.7c-3.3,6.9-4.6,15-5.6,22.6c-2.1,17.4,8.9,37,24.6,44.1
		c12.5,5.7,26.4,3.8,35.7-7.7C2533.5,489.8,2534.8,478.3,2535.9,466.8z"/>
	<path fill="#FFFFFF" d="M1184.6,760.9c12.6-1.3,17.9-5.2,19.8-14.8c4.8-23.6,12.5-46.1,23.9-67.3c5.5-10.2,12.8-18.6,22.9-24.4
		c18.8-10.7,33.3,0.2,39.3,15.6c7.2,18.2,4.5,35.9-4.2,52.8c-11.6,22.6-27.8,41.1-50.4,53.4c-7.3,4-7.9,6.1-5.3,13.7
		c1.8,5,3.6,10.1,5.9,14.9c4.7,10,9.5,11.3,18.4,5.1c2.8-2,5.7-4.1,7.9-6.7c8.6-10.5,15.8-22,20.3-34.9c3.7-10.7,6.8-21.6,10.2-32.3
		c0.4-1.2,0.9-2.4,1.5-3.4c14-21.3,26.2-43.9,44.7-61.7c20.7-19.9,43.7-36.8,72.3-44.4c14.5-3.8,26.6-1,36.8,10.1
		c1.9,2,3.9,3.8,6.9,6.6c2.4-3.5,4.5-6,5.9-9c2.1-4.4,5.3-6.5,10.1-7.4c18.6-3.2,37.1-6.8,55.6-10.2c0.3-0.1,0.6-0.2,0.9-0.3
		c4-0.5,9.1-2.2,11.2,1.9c1.4,2.6,0,7.2-1.3,10.5c-9.5,25.3-19.4,50.4-28.8,75.8c-10.3,27.7-20.3,55.4-30.1,83.2
		c-7.2,20.4-13.7,41.1-20.7,61.6c-2.6,7.7-5.7,15.3-8.3,23c-0.9,2.8-2.7,5.9,0.6,9.3c9.9-5.3,17.5-12.9,23.8-22
		c9-12.9,18.2-25.7,26.4-39.1c16.2-26.5,31.5-53.7,43.2-82.6c0.8-2,1.6-4.2,1.9-6.3c3.9-27.3,13.8-52.7,23.5-78.3
		c11.6-30.6,25.4-60.2,40.2-89.3c12.2-24.1,23.5-48.6,36.1-72.5c10-18.9,21-37.2,32.3-55.4c9.4-15.2,19.3-30.1,30-44.5
		c23.7-31.8,47.8-63.4,80.2-87.2c11-8.1,23.3-13.4,37.3-14.4c20.1-1.4,36.6,12.3,37.8,32.3c0.8,12.7-0.8,25-4.8,37.2
		c-7,21.3-15.5,41.8-26.5,61.3c-3.3,5.9-6,12.3-7.9,19.3c4.8-6.2,9.8-12.2,14.4-18.6c6.8-9.4,12.7-19.6,20-28.5
		c15.2-18.5,30.1-37.3,46.9-54.1c15-15.1,31.9-28.5,49-41.2c10.5-7.8,23.5-12,36.7-14.1c12.3-1.9,25.8,5.5,33.4,17.1
		c7.2,11,6.5,23,4.3,34.7c-2.1,11.3-5.7,22.7-10.5,33.1c-19.6,42.5-44.9,81.3-76.1,116.4c-28.9,32.6-60.2,62.5-94,90
		c-7.8,6.3-16,12.2-24.3,17.9c-5.4,3.7-9,8.5-11.6,14.4c-8.8,20.2-18.2,40-26.7,60.3c-9,21.4-17.5,43.1-25.4,64.9
		c-2.9,7.9-4,16.5-5.3,24.8c-0.5,3,0.1,6.3,1.1,9.2c2.4,7.3,7.6,9.6,13.7,5.1c8.3-6.2,16.6-12.8,23.3-20.5
		c17.6-20.5,35.4-41,51.2-62.9c14.9-20.6,28.6-42.1,37.3-66.4c5.4-15,15.6-27.2,25.9-39.2c12.8-14.8,27.5-27.7,44.1-38.2
		c16.6-10.5,34.3-18.5,53.4-22.9c6.9-1.6,14.4-1,21.5-1c8.7,0.1,15.5,4.4,21.6,10.2c7.1,6.6,6.9,6.1,14.4,0.7
		c3.3-2.4,8-4.1,12.1-4.2c14.5-0.6,28.9-0.3,43.4-0.4c6.3,0,12.6-0.2,18.9,0.3c9.5,0.8,11.1,4.1,6.2,12.2
		c-4.7,7.8-9.6,15.5-14.3,23.3c-20.9,34.1-41.8,68-62.5,102.2c-8.5,14-16.4,28.3-24.5,42.5c-1.4,2.5-2.1,5.5-4,10.7
		c5.7-1.6,9.6-1.8,12.4-3.6c10.6-6.7,21.9-12.9,31-21.3c18.9-17.5,36.8-36.1,54.7-54.6c4.5-4.7,7.9-10.6,11.5-16.1
		c19.1-28.9,38.2-57.7,57-86.7c3.5-5.4,7.5-7.8,13.9-7.5c20.1,1,40.2,1.6,60.3,2.6c8.9,0.5,10.7,3.9,6.1,11.5
		c-7.5,12.3-15.7,24.3-23.4,36.6c-5,8-9.8,16.1-14.6,24.2c-0.6,1-0.8,2.3-1.1,3.4c8.3,3.6,16.4,1,19.2-7c5.4-15.1,14.6-27.9,24-40.4
		c5.6-7.4,12.9-13.8,20.1-19.7c6.8-5.6,15.5-7,24-6.9c13.7,0.3,25.1,11.9,26.2,26.2c1,14.2-3.5,26.6-12.9,37.3
		c-11.8,13.3-26.7,21.8-42.9,28.3c-1.7,0.7-3.6,1.2-5.3,1.9c-10.1,3.8-11.2,6.8-6.2,16.1c5.5,10.1,10.4,12,21.6,9.3
		c13.6-3.3,23.4-11.7,31.2-22.9c18.4-26.3,36.7-52.6,54.8-79.1c4.2-6.1,8.8-9.2,16.4-8.1c19.9,2.8,39.9,5,59.7,7.8
		c6.5,0.9,8.1,5.1,4.5,11c-7,11.2-14,22.4-21.4,33.3c-18.3,27.1-36.7,54.2-55.1,81.2c-8.7,12.7-17.6,25.3-26.1,38.1
		c-4.3,6.4-7.9,13.3-11.7,20c4.6,4.9,8.8,5,13.8,4.2c23.7-4,42.5-16.5,59.2-32.8c10.2-9.9,16.1-21.8,19.3-35.8
		c4.3-19,14.7-35.2,27.2-50.1c19.1-22.9,42.4-40.1,69.5-52.1c17.7-7.8,36.6-10.1,55.4-6.9c19.7,3.4,33.8,15.8,43,33.5
		c4.1,7.8,7.3,15.9,7.8,25c1.8,30.5-13.5,50.6-38.8,64.6c-15.5,8.6-32.4,11.7-49.9,11.8c-9.7,0-19.5-0.4-29.2-0.9
		c-4.2-0.2-7.7,0.9-9.9,4.2c-8.5,12.8-17.5,25.4-24.8,38.9c-6.7,12.3-2.4,19.5,11.4,22.1c17,3.3,33.7,1.6,50.3-3.1
		c31.5-9,58.3-25.9,82.7-47.4c14.8-13.1,26.6-28.4,37.6-44.5c3.6-5.3,7.1-9.6,14.6-5.7c1.7,0.9,5.5-0.7,7.5-2.3
		c10.4-7.6,21-15.1,30.7-23.5c12.6-10.9,24.3-22.8,36.6-34.1c5.5-5.1,6-10.7,5-17.9c-2.2-17.3,2.1-32.9,15.4-45.3
		c7.4-6.9,16.1-8.2,25.4-5.3c9.4,2.9,14,9.9,15.5,19.4c2.5,15.2-0.3,28.7-11.2,40c-1.1,1.1-2.2,2.3-3.1,3.5c-4,5.2-4.2,7.1-0.8,12.7
		c3,4.8,6,9.7,9.3,14.2c19.3,26.2,30.3,55.6,34.1,87.7c0.9,7.4-0.3,15-0.6,22.5c-0.1,2.4-0.5,4.8-0.7,7c4.7,3.2,7.7,0,10.9-1.4
		c19-8.4,32.7-22.9,45.1-39.1c9.4-12.3,9.7-12.1,19.9-0.6c1.3,1.4,2.5,2.8,3.7,4.3c4.1,5.4,4.3,7.9,0.5,13.6
		c-8.6,13-18.5,24.7-31.1,33.9c-10.4,7.6-20.6,15.7-33.1,19.8c-7.1,2.3-14.3,4.8-21.6,6.2c-6.5,1.2-11.8,3.5-15.8,9.1
		c-17,23.3-41,34.4-68.9,38.1c-3.1,0.4-6.3,0.4-9.4,0.1c-42.2-5.1-73.3-26-92.3-64.4c-1.5-3.1-2.4-6.4-3.6-9.7
		c-2-5.4-4.1-6.3-9.2-3.1c-12.2,7.8-24.2,15.9-36.5,23.4c-22.3,13.6-46.2,22.8-72.4,24.2c-10.9,0.6-22.1,0.6-32.9-0.9
		c-27-3.8-47.5-17.3-58.4-43.3c-1.8-4.3-4-8.3-6-12.5c-6.4,0.2-9.9,4-13.9,6.9c-14.3,10.5-29.3,19.6-46.7,23.8
		c-14.7,3.6-29.1,2.4-43.6-2.1c-20.9-6.5-40.6-38-38.3-55.8c0.6-4.7,0.7-9.4,0.8-14.1c0.2-6.6-0.4-7.3-7-9c-1.2-0.3-2.5-0.7-3.7-0.7
		c-22.6-0.8-33.9-15.3-41.5-34.3c-0.3-0.9-0.4-1.8-0.7-2.7c-2.2-6.3-4-7.3-10.6-5.6c-24,6.4-43.3,19.6-57.3,40.4
		c-11.6,17.2-23.4,34.3-34.7,51.7c-5,7.6-10.5,10.7-20.3,9.7c-15.2-1.6-30.7-0.5-46.1-0.8c-7.5-0.2-14.9-1.4-22.4-1.5
		c-3.3,0-6.8,1.1-9.8,2.4c-8.1,3.7-16.3,6.3-25.3,7c-21.5,1.7-34.4-5.7-43.7-25.2c-0.9-2-1.9-4-3.1-5.8c-0.4-0.7-1.4-1.1-2.3-1.7
		c-5.1,0.8-6.7,5.4-9,8.9c-7.3,10.8-16.1,20.1-27,27.3c-12.5,8.3-26.5,11.5-41.2,11c-11.4-0.4-20.2-6.9-26.8-15.8
		c-5.6-7.6-10.2-15.8-12-25.3c-0.7-3.4-2.2-8.6-4.6-9.4c-4.7-1.7-6.4,3.9-8.8,7c-19.4,26.1-41.2,50-65.8,71.3
		c-4.3,3.7-8.8,7.3-13.7,10c-15.3,8.4-31.3,10.1-46.5,0.5c-10-6.3-16.2-16.4-20.4-27.5c-1.6-4.3-2.1-9.2-7.3-12.9
		c-2.1,3.1-4.2,5.7-5.9,8.5c-16.7,27.8-34.4,54.9-57.1,78.4c-7.7,8-16,15-26,20.1c-18.1,9.1-34.7,3.2-46.4-8.8
		c-10.4-10.7-16.7-23.4-20.4-37.7c-0.9-3.5-2.6-6.8-4.7-12.2c-2.9,4-4.8,6.3-6.3,8.8c-10.9,17.3-21.1,35-32.6,51.9
		c-10.3,15.1-22.3,29-37.7,39.3c-5.4,3.6-11.4,6.7-17.5,8.9c-21.5,7.8-37.1-5.2-42.9-21.2c-1.8-4.9-3.8-9.7-5.6-14.3
		c-5.6-0.1-6.2,3.9-7.9,6.7c-6.5,10.7-12.5,21.8-19.6,32.2c-6.4,9.3-15.2,15.7-26.7,18.1c-18.3,3.8-35.7-4.3-45.2-18.4
		c-5.8-8.6-10.7-17.6-13-28c-3.4-15.3-9.5-30-9.7-46c0-1.2-0.4-2.5-0.9-3.7c-0.3-0.8-1-1.5-1.6-2.2c-7.6,2-15,4.5-22.6,5.8
		c-4.4,0.7-9.6,0.6-13.7-1c-13.2-5-23.2-13.6-27.9-27.5c-1.7-5.1-3.6-10-5.7-15c-1.2-2.8-2.7-5.4-4.6-9c-11.7,6.2-21.3,13.7-30,22.3
		c-12.3,12.2-20,27.2-26.3,43.2c-9.5,23.9-19.8,47.6-29.5,71.4c-2.9,7.1-7.3,10.3-15.2,9.6c-19.4-1.7-38.9-2.7-58.3-4.4
		c-7.9-0.7-9.5-3.9-6.3-11.7c8.7-21.2,17.7-42.3,26.5-63.5c4.8-11.5,9.3-23.1,14.1-35c-6.8-4.1-13.2-5.6-19.7-4.6
		c-2.6,0.4-5.5,3.8-7,6.6c-6.5,11.5-12.2,23.4-18.7,34.9c-12.8,22.7-29.3,42.5-49.7,58.8c-21.8,17.5-53,21.7-80.9,3.5
		c-20.9-13.7-33.9-33.2-42.5-56.2c-2.1-5.5-3.7-11.1-6.2-18.3c-7.1,7.7-12.9,14.1-18.8,20.5c-14.1,15.4-29.5,29-47.7,39.6
		c-27,15.6-53.6,7.6-70.3-15.9c-10.8-15.1-15.5-32.2-15.8-50.5c-0.3-18.2,3.7-35.4,12.1-51.8c12.2-23.7,23.7-47.9,35.3-71.9
		c1.4-2.9,1.9-6.2,2.8-9.2c-0.6-0.4-1.2-0.9-1.8-1.3c-2.8,1.8-5.8,3.2-8.2,5.4c-7.9,7.2-15.9,14.4-23.2,22.2
		c-33.2,35.4-62.9,73.6-88.4,115.1c-4.9,8-10.6,15.6-15.6,23.6c-4,6.4-9.2,9.1-16.6,7.7c-12.6-2.3-25.3-4.6-37.9-6.9
		c-9.3-1.7-18.6-3.1-27.8-5c-6.8-1.4-7.7-3.7-4.5-10c1.3-2.5,2.8-4.9,4.4-7.2c13.8-19.5,27.8-38.8,41.5-58.4
		c15.9-22.7,30.8-46,43.8-70.4c6.5-12.2,12.8-24.5,19.1-36.8c13.6-26.2,27.2-52.5,40.8-78.7c17.1-32.9,33.6-66.2,51.6-98.6
		c12.8-23,28.2-44.6,41.4-67.4c10.8-18.7,24.4-35.1,37.7-51.8c13-16.4,27-32.3,46.4-42.1c20.6-10.4,43.1-2.2,51.2,20.5
		c6.3,17.7,6.5,36,3.4,54.1c-7,41.2-24.9,78.2-46.2,113.7c-19,31.6-42.6,59.3-70.7,83c-20.9,17.6-42.9,33.9-64.6,50.6
		c-5.4,4.2-11.3,7.8-11.9,16.9c2.6-1.5,4.3-2.5,6-3.6c7.7-4.8,15-10.4,23.2-14.3c19.1-9.1,34.8-6.3,48.1,12.3
		c19.3,26.9,24.4,57.7,14.9,89.8c-7.8,26.4-21,50.4-34.8,74.1c-5.9,10-11.5,20.2-17.2,30.4c-0.5,0.8-1.2,1.7-1.2,2.5
		c-0.1,1.7-0.3,4.1,0.6,5c1,1,3.6,1.2,5,0.6c7.3-3.5,15.2-6.5,21.6-11.3c23.5-17.9,42.7-39.6,58.1-65c12.6-20.8,22.5-42.8,32.9-64.6
		c16.4-34.4,38.1-64.8,71.2-84.7c25.8-15.6,55-16.4,79,3.9c5.1,4.3,10,6.1,17.1,5.2c10.8-1.3,19.3,4.6,25.3,13.4
		c2.5,3.6,4.7,7.6,6,11.7c5,16,8.2,32.3,5.1,49.2c-2.2,11.7-4.4,23.4-6.5,35.1c-1.3,7.3,0.7,9.5,7.9,8.2c12.2-2.2,21-7.9,24.9-21.1
		c3.8-12.9,10.1-25,15.1-37.5c7.7-19.3,15.4-38.5,22.6-58c3.3-9,8.4-13.9,18.6-13.9c18.2,0,36.4-1.1,54.7-1.4
		c7.3-0.1,9.5,3.1,7.2,10.3c-2.4,7.5-5.4,14.8-8.1,22.1c-7.9,20.8-15.8,41.7-23.6,62.5C1186,754.6,1185.5,757.3,1184.6,760.9z
		 M1793.8,488c-0.6-0.4-1.3-0.8-1.9-1.2c-2.2,2.5-4.4,4.9-6.5,7.4c-13,16.2-25.4,32.8-39,48.5c-26.1,30.3-53.4,59.5-83.9,85.5
		c-6.4,5.4-10.8,11.8-13.7,19.8c-9.7,26.9-20.3,53.5-30.1,80.3c-9.7,26.9-19.8,53.7-23.1,82.4c-0.6,5.2-0.7,10.8,0.5,15.8
		c2.5,10.7,8.3,12.9,17,6c8.3-6.6,16.6-13.8,22.9-22.2c20.7-27.8,38.4-57.5,54-88.5c4.8-9.5,9.9-19.1,13.4-29.1
		c4.6-13.3,8.4-26.9,11.6-40.7c4.7-20.5,13.8-39.2,23-57.7c16-32.3,33.6-63.9,50.5-95.8C1790.4,495,1792,491.5,1793.8,488z
		 M933.4,906.2c6.1,0.1,17.7-4.9,24.2-9.6c19.2-13.9,32.3-33.3,45.4-52.4c7.1-10.3,11.8-22.2,18.5-32.7c4.4-6.9,3.1-11.9-1.3-17.9
		c-14.3-19.7-19.6-41.9-17-65.9c0.9-8.4,2.8-16.7,4.5-25c0.8-3.8,0.5-7-3-9c-3.4-1.9-6.9-1.2-9.6,1.5c-2.4,2.4-4.8,5.1-6.3,8.1
		c-12.7,25.6-25.5,51.1-37.5,77c-11.9,25.6-22.9,51.7-34.1,77.6c-3.9,9.1-5.1,18.8-4.4,28.6C913.7,897.6,922.8,906.1,933.4,906.2z
		 M1685.4,560.1c0.7,0.6,1.4,1.2,2.2,1.8c2.8-2.3,5.8-4.5,8.3-7.1c26.6-27.2,51.5-56,73.3-87.3c10-14.4,19.2-29.5,28.4-44.5
		c13.8-22.6,24.5-46.7,33.7-71.5c2.3-6.1,3.1-12.8,4.2-19.3c0.8-4.8,0.2-9.8-4.3-12.7c-4.6-2.9-9.3-1.3-13.2,1.7
		c-4.4,3.5-9.2,7-12.3,11.6c-17.1,24.7-36.1,48.2-49.1,75.6c-4.6,9.6-10.4,18.7-15.5,28.1c-18.9,35.6-34.6,72.6-50.6,109.5
		C1688.6,550.8,1687.1,555.5,1685.4,560.1z M748.7,610.1c0.7,0.6,1.5,1.2,2.2,1.9c7.4-6.1,15.5-11.6,22-18.5
		c15.8-16.6,31.6-33.2,46.1-51c14.3-17.6,24.8-37.7,34.8-58c11.5-23.2,20.2-47.3,25-72.7c1.4-7.2,1.2-15,0.2-22.4
		c-1.1-7.9-6-9.8-12.9-5.6c-3.4,2.1-7,4.6-9.3,7.8c-8.2,11.1-16.3,22.3-23.6,33.9c-11.7,18.6-21.3,38.4-30,58.7
		c-16.2,37.5-32.6,74.9-48.9,112.3C752.4,601,750.6,605.6,748.7,610.1z M1435.4,683.7c-0.4-2.7-0.6-5.2-1-7.7
		c-0.5-2.8-1-5.6-1.9-8.3c-2.5-7.2-9.1-9.4-14.9-4.5c-2.8,2.4-5.2,5.6-6.7,9c-10.5,24.5-21,49.1-30.9,73.9
		c-9.1,23.1-17.5,46.4-25.9,69.8c-8.3,23.3-16.3,46.8-24.3,70.3c-1.1,3.2-1.9,6.7-2,10.1c-0.3,8.9,5,12.7,13.4,9.8
		c2-0.7,4.1-1.9,5.5-3.5c5-6,10.4-11.8,14.2-18.5c6.4-11.5,12-23.5,17.4-35.5c5.8-12.9,11.1-26,16.2-39.1
		c6.9-17.8,12.8-36.1,20.3-53.7c8.5-20.1,13.8-41,19.2-62C1434.8,690.5,1434.9,687,1435.4,683.7z M1850.8,529.5
		c0.6,0.4,1.3,0.9,1.9,1.3c3.7-2.7,7.7-5,11-8.1c11.1-10.2,21.9-20.7,32.8-31c21.9-20.6,39.4-44.8,57.7-68.4
		c14.7-19,24.8-40.8,36.3-61.7c6.6-12,9.6-25.2,10.8-38.8c0.4-4.2,0.4-8.6-4-10.8c-4.3-2.1-8.6-1.2-12.5,1.3c-1.6,1-3.1,2.2-4.3,3.6
		c-8.9,9.8-18.2,19.2-26.3,29.6c-18.2,23.4-34.1,48.3-48.3,74.2c-18,32.7-34.6,66.3-51.8,99.5
		C1852.6,523.2,1851.9,526.5,1850.8,529.5z M2033.5,567.4c0-6.9-2-11.4-6.8-14.1c-4.8-2.6-10.4-1.9-14.6,2.8
		c-4.8,5.3-9.3,11.1-13,17.2c-18.3,30.1-36.7,60.1-54.2,90.7c-10.3,18-19.1,36.8-28.5,55.3c-1.2,2.5-2,5.3-2.3,8.1
		c-0.5,3.8,1.7,6,5.5,6c2.1,0,4.6-0.4,6.3-1.5c6.5-4.4,13.2-8.6,18.9-13.9c15.4-14.3,24.8-33.2,36.1-50.5c13-20,24.8-40.8,36.9-61.4
		c3.3-5.7,6.5-11.6,8.9-17.7C2029.5,581.1,2031.5,573.5,2033.5,567.4z M2703.5,742.2c-0.6,0.4-1.2,0.7-1.8,1.1
		c1.2,2.7,1.7,6,3.6,8.1c4.8,5.4,9.4,11.4,15.3,15.1c15,9.3,23.1,6.5,31.5-3.8c11.5-14.1,23.1-28.2,33.4-43.2
		c8.7-12.6,16.3-26.1,23.1-39.7c7.7-15.3,8.9-31.1-0.1-46.7c-5.3-9.3-8.7-10-16.5-3.1c-14.5,12.9-29.2,25.7-43.9,38.5
		c-7.1,6.2-7.2,7.3-1.5,14.6c10.7,13.9,14,29,8.7,46c-5,15.9-19.4,24.1-35.3,19.4C2714.4,746.8,2709,744.3,2703.5,742.2z
		 M2560.3,659.7c1.2,1.1,1.7,1.9,2.5,2.3c0.8,0.4,1.8,0.6,2.7,0.5c18.8-1.2,35.1-7,44.9-24.5c2.7-4.9,4.7-10.3,7.5-15.1
		c3.2-5.5,3.5-11.4,3-17.3c-0.7-8.9-8.1-12.5-15.5-7.5c-3.1,2.1-5.8,4.9-8,7.9c-11.5,15.7-22.8,31.5-34,47.4
		C2562.1,655.2,2561.3,657.6,2560.3,659.7z"/>
	<path fill="#FFFFFF" d="M1176.3,267.5c-83.3,22.4-178.4,28.1-260.5-9.7c-79.4-36.5-150.3-38.6-182-30.4c-19.1,5-28.2,36-49.9,24.9
		c-14.8-8.7-22.8-12.8,5.6-64.3c18.3-33.1,19.5-61.4,75.7-51.6c37.8,6.6,94.9,33.8,136.7,61.5c97.2,65.7,340.6-0.7,359.4-10
		c8.2-4,19.4-9.8,31.9-6.9c7,1.6,5.6,13.4,3.7,18.1c-5.2,13.3-10.1,16.5-23.8,23.4C1273,222.4,1221.5,255.3,1176.3,267.5z"/>
	<path fill="#FFFFFF" d="M643,70.3c-4-6.5-13.6-8.2-20.8-9.5c-8.6-1.5-17.6-2.8-26.2-2c-17,1.5-33.2,6.8-48.7,13.7
		c-20,9-36.6,22.5-51.9,38.4c-15.9,16.6-28.7,35-40.1,54.6c-15.7,26.9-27.5,55.7-38.3,84.9c-8.3,22.4-14.2,45.5-19.3,68.9
		c-1.8,8.3-2.7,9.7-11.3,11.3c-13.6,2.5-27.1,5-40.7,7.2c-20.8,3.4-41.7,5.9-62.3,9.8c-27.1,5.1-54.2,10.6-81.1,16.8
		c-18.4,4.2-36.2,10.6-52.5,20.2c-17.3,10.2-31.4,23.9-44,39.4c-16.6,20.4-30.6,42.1-39.5,67C54,525,47.8,559.7,50.9,595.7
		c0.6,6.9,2,13.7,2.4,20.6c1.3,25.6,9.8,49.3,19.6,72.4c8.6,20.3,20.7,38.8,34.1,56.3c4,5.2,8,10.5,12.6,15.3
		c19.2,19.6,39.5,37.8,62.7,52.6c21.1,13.4,43.8,23.1,67.9,29.7c9.1,2.5,18.2,4.7,27.3,7c9.7,2.5,10.3,3.4,8.3,12.8
		c-1.9,8.9-3.7,17.8-5.8,26.7c-5.2,22.4-17.8,39.8-35.7,53.9c-8.4,6.6-16.3,13.8-24.6,20.5c-3.4,2.7-6.8,5.8-10.7,7.4
		c-19.3,8.1-39.1,12.3-60.6,10.1c-24.3-2.4-45.6-10.6-64.8-25.5c-9.2-7.2-15.3-16.5-20.8-26.5c-0.6-1.2-0.2-2.9-0.4-6
		c6,2.3,10.3,4.1,14.7,5.7c13.1,5,26.3,7.1,40.5,4c36.1-7.9,53-40.4,45.9-73.8c-4.9-23.3-18.6-40.9-38.8-53.5
		c-25.2-15.8-52-19.9-80.3-10.4c-14.3,4.8-26.3,13.6-34,27.1c-13.2,23.3-12.5,48.4-7.2,73.4c6.8,31.9,26.3,55.9,51.1,76
		c16.9,13.6,36.4,22.2,56.7,29.3c12.5,4.3,25.4,7.2,38.6,7.6c21.1,0.6,42-0.9,62.7-5.7c29.3-6.8,54.1-19.6,70.5-46.1
		c11-17.8,18.5-37.1,25.1-56.8c3.1-9.2,5.9-18.6,9.1-27.8c3.9-11,4-11.1,15.3-10.9c32.1,0.7,63.1-4.5,93.2-15.6
		c0.9-0.3,1.7-0.8,2.6-1.1c17.1-5.3,32.1-14.5,45.7-25.7c28.8-23.5,47.3-54,59.8-88.8c10.9-30.4,10.4-61.1,5.1-92.1
		c-3.4-19.7-10.8-38.2-21.7-54.9c-8.4-12.8-17.4-25.8-28.6-36.1c-25.9-24-56.2-41.1-91.3-48.4c-9.9-2.1-11.2-4.3-9.3-14.5
		c2-10.5,4.3-20.9,6.4-31.4c1.8-8.6,2.5-9.2,11.4-11.1c24.6-5.2,48.4-12.2,71.4-22.7c32.2-14.7,59.9-35.7,86.4-58.5
		c21.7-18.6,39.2-40.8,53.8-65.3c6.4-10.8,12.7-21.8,18-33.2c5.5-11.9,9.9-24.4,14.5-36.7c4-12.7,4.8-15.9,7.9-39.5
		c3.1-19.1,1.6-18.8,3-28.1C665.3,80.8,643,70.3,643,70.3z M308.1,751.9c-3.7,18.1-7.3,36.3-10.9,54.4c-1.2,5.9-2.4,11.7-3.7,17.5
		c-1.3,5.6-2.7,6.6-8.5,6c-18.3-2.1-35.6-7.7-52.3-14.9c-45.6-19.7-80.8-51.7-106.5-93.9c-11.7-19.2-20.1-40-23-62.4
		c-1.9-14.9-1.7-30,1.5-45.1c7-32.8,25.4-58.1,49.5-80.5c26.9-25,59-40.2,92.9-52.3c13.3-4.8,26.5-10,40-13.9
		c18.1-5.2,36.4-9.4,54.7-14c6.1-1.5,12.2-3.2,18.4-3.8c8.1-0.8,9.2,0.9,7,8.4c-2.3,7.8-4.5,15.7-6.6,23.6
		c-1.9,6.9-2.9,8.4-10.3,8.7c-17.4,0.8-34.3,3.9-51,8.5c-17.2,4.8-34.5,9.8-49.5,19.9c-12.7,8.5-22.5,20.2-31.4,32.4
		c-16.3,22.3-24.1,48.3-28.6,75.1c-1.8,10.7-1.5,22.1-0.3,32.9c2,19.1,5.9,37.9,13.2,55.8c6.1,14.7,14.5,28,26.3,38.7
		c4.7,4.3,11,7,16.9,9.7c4,1.9,8.3,0.7,10.7-3.4c2.2-3.7,1.1-7.4-1.8-10.3c-18.1-18.5-21.8-41.8-21.9-66.2
		c-0.1-23.7,2.2-47.1,9.1-69.8c5.9-19.4,17.1-36.2,32.1-49.2c16.4-14.3,36.3-22.3,58.7-22.3c16.5-0.7,17.6,2.4,14.9,17.5
		c-4.6,26.3-10.7,52.3-16,78.4c-2.7,13.2-5.2,26.5-7.9,39.7C318.5,702.1,313.2,727,308.1,751.9z M388.9,555.7
		c10.5,6.2,21.3,12.2,29.6,21.6c23.5,26.8,31.9,59.1,34.3,93.5c1.5,28.5-4.2,55.7-13.7,82.2c-8.6,24.2-22.6,45-42.9,60.7
		c-8.5,6.6-18.9,11.2-29,15.2c-10.1,4.1-20.7,7.3-32,6.5c-9.4-0.7-10.3-1.4-8.4-10.9c6.4-32.3,12.8-64.6,19.3-96.9
		c5.9-29.2,11.7-58.5,17.7-87.7c4.9-24.3,10-48.6,15-72.8c0.5-2.5,0.9-5,1.7-7.3C382,554.9,384.7,553.3,388.9,555.7z M616.1,199.4
		c-2.5,19.6-10.7,36.4-24.7,50.6c-23.9,24.4-52.6,41.2-83.8,54.5c-18.9,8-38.2,14.2-58,18.9c-3.9,0.9-8,1.4-10.9,1.8
		c-2.5,0-3.7,0.1-5,0c-5.7-0.4-7-2.2-6-8c0.2-1.2,0.7-2.4,1.1-3.6c9.2-26.7,19.2-53.1,33.8-77.5c18-30,41.5-54.5,73.3-69.9
		c18.3-8.8,37.5-12,57.4-4C608.7,168.4,618.2,182.9,616.1,199.4z"/>
	<path fill="#FFFFFF" d="M712.9,957.3c127.1,19.7,254.4,29.9,382.6,38.5c119,8,244,5.9,361.6-15.5c113.7-20.7,223.7-56.6,336.6-82
		c109.4-24.6,225-56.2,337.9-81.8c56.1-12.7,113.8-23.2,171.2-27c8.9-0.6,54.6-8.9,52.9,8.9c-1.3,13.6,1.6,80.6-20.1,78.8
		c-59.6-4.9-127.7-3.2-187.1-2.9c-56,0.3-113.6,4.4-168.2,13.9c-109.1,19-212,35.3-315.6,62.5c-123.7,32.4-241.6,79.1-366.9,106.1
		c-186.9,40.2-392.7,55-582.8,30.1c-47.8-6.3-96-9.5-143.6-17c-24.5-3.9-48.1-4.8-73.8-9.1c-18-3.1-16.6-40.9-16.6-52.3
		c0-18.4-6.9-90.9,5.9-101.4c9-7.3,45.6,8.5,54.1,10.8c24,6.6,47.9,13.3,72,19.4"/>
	<path fill="#FFFFFF" d="M2354.9,1171.9c0-34.9,0-69,0-103.1c-0.5-0.2-1.1-0.3-1.6-0.5c-12.7,29.9-25.4,59.7-38.2,89.8
		c-10.5,0-20.5,0-31.3,0c-12.7-29.5-25.5-59-38.5-89.4c-2.5,7.1-3.3,88.6-1.2,103.5c2.8,0.2,5.9,0.3,8.9,0.5
		c4.1,0.3,8.2,0.5,12.1,1.3c9.3,1.9,14.3,8,14.5,17c0.2,9.5-5,16.2-14.4,18.2c-2.7,0.6-5.6,0.6-8.4,0.6c-16.7,0.1-33.4,0.1-50,0
		c-3.1,0-6.4-0.1-9.3-1c-8.2-2.4-12.3-8.8-12.1-18c0.2-8.7,4.4-14.4,12.5-16.7c2.7-0.8,5.5-1.3,8.8-2.1c0-48.1,0-96.1,0-144.6
		c-1-0.3-2.1-0.6-3.2-0.9c-10.8-2.5-15.4-8.3-14.9-19.4c0.4-10.2,5.6-16.9,16.1-17.4c15.3-0.8,30.7-0.2,46.7-0.2
		c15.9,36.8,31.7,73.4,48.2,111.8c16.2-38.3,31.7-74.8,47.3-111.8c15.6,0,31-0.5,46.4,0.2c10.5,0.5,16.3,7.1,16.9,16.9
		c0.7,11.2-4.1,17.5-15.4,20.1c-0.9,0.2-1.8,0.5-3,0.8c0,48.1,0,96.1,0,144.4c2.7,0.7,5.1,1.4,7.5,2.1c9.9,2.6,15.1,9.8,14.2,19.3
		c-1,9.7-7.3,15.9-17.4,16.6c-5,0.4-10.1,0.1-15.1,0.1c-13.2,0-26.4,0.1-39.7-0.1c-3.7-0.1-7.6-0.5-11.1-1.6
		c-7.9-2.7-11.5-8.7-11.2-17.6c0.3-8.6,4.6-14.7,12.9-16.3C2339.2,1173,2346.7,1172.8,2354.9,1171.9z"/>
	<path fill="#FFFFFF" d="M1995.2,1116.4c9,1.9,14.5,0.7,18.9-2c3.3-2,5.9-4.7,8.8-7.2c0.9-0.8,1.6-1.9,2.5-2.8
		c1.8-1.9,4.3-2.1,7.7,0.2c3.7,2.6,3.4,5.1,2.4,7.4c-4.2,10.3-12.2,16.9-24.7,18.6c-5.5,0.8-11.2,1.1-17,1.2c-3.5,0.1-6.1,1-7.5,3.5
		c-3.6,6.4-7.1,12.8-10.8,19.2c-5.3,9.1-10.6,18-16,27c-4.4,7.4-9.1,14.6-13.3,22.1c-2.1,3.8-5.1,5.7-10.6,5.3
		c-5-0.4-9.6,0.3-14.4,0.2c-3.9-0.1-7.8,1-13.4-3c0.7-2,1.1-4.1,2.1-5.8c7.1-11.6,14.4-23.1,21.3-34.8c6.4-10.8,12.4-21.9,18.6-32.9
		c1.6-2.8,3.1-5.7,4.6-8.5c-4.9-4-7.7-2.5-10.8-2.4c-4.2,0.2-8.2,0.8-12.5,0.5c-4.4-0.3-6.4,1.7-8.2,4.5c-7.1,11-16.4,20-28.8,26
		c-4.4,2.1-10,3.2-15.6,3.5c-8.6,0.5-17.5-4.2-25.1-11.2c-3.4-3.1-5.9-7.6-7.6-11.5c-4.8-11.1-2.7-20.2,0.7-28.2
		c4.7-11,12-20.1,22.2-26.8c7.9-5.3,18-6.7,29.5-5.8c2.5,0.2,5.4,1.5,8.1,2.3c2.4,0.7,5.1,2.1,7.3,2.2c6.8,0.3,12.4,3.6,17.1,9.8
		c0.7,0.9,1.6,1.6,3.1,3.1c1.6-2.8,3.1-5.3,4.5-7.8c2.2-3.8,5.6-6.1,10.8-6.6c7.5-0.6,12,1.8,17.2,9.3c1.3,1.9,2.6,3.8,4.6,6.9
		c1.6-2,3.1-3.4,4.1-5.1c8.8-15.5,16.9-31.5,26.4-46.6c11.8-18.8,24.9-36.6,45.9-47.4c5.3-2.7,10.9-4.9,18-4.6
		c9,0.3,16.7,6,19.2,14.9c0.9,3.2,0.9,6.4,0.6,9.3c-1.3,10.5-6.2,18.8-12,26.6c-8.3,11-17.8,21-29.4,28.9
		c-9.1,6.2-18.9,11.7-28.5,17.5c-1.7,1-3.7,1.6-5.1,2.9C2002.6,1095.4,2000.2,1105.9,1995.2,1116.4z M1902.3,1088.6
		c-6.1,0.2-8.3,3.2-10.3,6.3c-2.4,3.7-4.4,7.7-6.5,11.5c-4.6,8.5-9.3,16.9-13.8,25.6c-1.3,2.6-3.3,5.9,0.7,9.3
		c4,3.6,7.6,1.8,10.8,0.6c12.6-4.6,20-14.2,27.6-23.6c1.6-2,1.5-4.5-1.6-7.5c-5.1-4.9-5.8-9.7-6-14.7
		C1903.1,1094,1902.7,1091.7,1902.3,1088.6z M2025,1059c0.6,0.6,1.2,1.1,1.8,1.7c1.2-0.3,2.8-0.4,3.7-1.1
		c7.9-6.3,16.3-12.2,23.4-19.1c8.4-8.2,14.4-18.4,18.3-29.9c0.9-2.8,2.3-5.6-1.4-9.5c-4.9-1.6-7.8,0.1-9.9,2.4
		c-4.5,4.9-9,9.9-12.7,15.4c-5.5,8.1-10.5,16.6-15.5,25.1C2029.8,1048.8,2027.5,1054,2025,1059z M1933.5,1098.8
		c-0.6,3.9-2.8,6.1,1.3,10.1C1939.2,1106.5,1939.2,1106.5,1933.5,1098.8z"/>
	<path fill="#FFFFFF" d="M2744.6,1172.8c7,0,13.6-0.2,20.1,0.1c4.4,0.1,8.8,0.5,13.1,1.4c8.7,1.8,13.6,8,13.9,16.6
		c0.3,8.9-3.9,15.2-12.4,17.8c-3,0.9-6.2,1.3-9.3,1.3c-29.6,0.1-59.2,0.1-88.8,0c-11.2,0-17.5-4-20.2-12.1
		c-3.7-11.1,1.8-21.7,13.3-23.6c8.6-1.4,17.5-1,26.3-1.5c1.8-0.1,3.7-0.3,6.2-0.5c0-48.3,0-96.3,0-145c-12.1,0-24.2,0-37.3,0
		c0,6.9,0.1,13.4,0,20c-0.1,7.6,0.1,15.1-0.6,22.6c-1,10.9-7,16.8-16.4,17.2c-10,0.4-15.8-4.4-18.1-15.3c-0.6-2.8-1-5.6-1-8.4
		c-0.1-23,0-46,0-69c0-1.2,0.3-2.4,0.5-3.6c7.3-1.9,174.8-2.2,184-0.2c0.2,1.1,0.6,2.3,0.6,3.5c0,23.9,0,47.9-0.2,71.8
		c0,3.7-0.8,7.6-2.1,11c-2.6,7.1-8.2,10.4-16.3,10.2c-7.3-0.2-13-3.7-15.2-10.5c-1.4-4.4-2-9.2-2.1-13.9
		c-0.3-11.6-0.1-23.2-0.1-35.4c-12.8,0-24.9,0-37,0C2743.4,1034.1,2742.6,1152.7,2744.6,1172.8z"/>
	<path fill="#FFFFFF" d="M2493.1,1172.8c0-49.1,0-96.9,0-145.3c-2.4-0.2-4.8-0.7-7.2-0.7c-11-0.1-22,0.2-33-0.2
		c-12.3-0.4-19.1-7.7-18.8-18.9c0.3-8.9,4.9-14.8,13.7-16.7c4.6-1,9.3-1.5,14-1.5c33.4-0.1,66.7-0.1,100.1,0c5,0,10.1,0.6,14.9,1.7
		c8.1,1.8,12.6,8,12.8,16.5c0.2,8.8-3.5,14.8-11.5,17.4c-3.5,1.1-7.4,1.5-11.1,1.6c-11.9,0.2-23.9,0.1-35.7,0.1
		c-2.1,7.1-2.7,129.6-0.9,145.1c2.2,0.3,4.5,0.8,6.9,0.9c8.8,0.1,17.6-0.1,26.4,0.1c4.1,0.1,8.2,0.5,12.1,1.4
		c8.7,1.9,13.4,7.9,13.6,16.8c0.2,9.1-3.9,15.2-12.5,17.7c-3.3,0.9-6.8,1.2-10.2,1.2c-36.8,0.1-73.7,0.1-110.5,0
		c-3.1,0-6.3-0.2-9.3-1c-8.9-2.4-13.4-8.9-13-18.3c0.3-8.9,5-14.7,13.9-16.5c4.3-0.9,8.7-1.3,13.1-1.3
		C2471.4,1172.7,2481.7,1172.8,2493.1,1172.8z"/>
	<path fill="#FFFFFF" d="M1088.2,122.9c-2.9,2.6-6.5,4.7-8.5,7.9c-7.4,11.6-15.1,23.2-21.1,35.6c-4.1,8.4-8.4,13.6-18.4,12.2
		c-4.3-0.6-8.8,0.3-13.2-0.2c-6.9-0.8-8.8-4.2-5.8-10.4c3-6.2,6.4-12.2,9.5-18.4c12.4-24.3,25.1-48.5,37.1-73.1
		c11.1-22.9,25.5-43.2,44.3-60.3c6.6-6,14.7-9.8,24.1-8.7c6.6,0.8,11.4,3.6,13.7,10.9c3.2,10.4,1.7,20.2-3,29.2
		c-8.1,15.4-18.5,29.2-33.9,38.4c-3.7,2.2-6.8,5.3-11.1,8.6c2.9,2.1,4.7,3.7,6.7,4.9c11.9,6.6,15.2,17.4,13.3,29.7
		c-1.2,7.9-4.9,15.5-7.5,23.2c-0.7,2.2-1.4,4.5-2.2,6.7c0.5,0.5,1.1,0.9,1.6,1.4c2.1-1.4,4.9-2.3,6.3-4.2c6.8-9,14.3-17.7,19.4-27.7
		c7.3-14.2,18-23.9,32.1-30.5c12.8-5.9,29.2-0.5,35.1,11.5c8.5,17.4-4,30.7-17.6,35.3c-4.4,1.5-9.2,1.9-13.8,2.6
		c-6.2,1.1-10.3,4.8-11.7,10.7c-1.3,5.8,2.1,9.7,7.8,8c16.1-5,31-12.1,40.7-26.9c1.9-2.9,3.4-6.1,5.7-8.7c1.5-1.6,4.7-3.5,6-2.9
		c2.2,0.9,4.7,3.8,4.9,6c0.3,3.2-0.7,7-2.3,9.8c-8.9,15.9-22,27.6-38.7,34.4c-9.4,3.9-19.6,3.6-29.6,0.9c-5.8-1.6-9.7-5.2-13.2-10
		c-6.6-9.1-7.4-8.8-15.6-0.6c-4.4,4.4-9.3,8.4-14.5,11.7c-6.5,4.1-13.5,3.1-19.4-1.6c-12.6-9.9-17.9-23.2-10.4-40.1
		c2-4.4,4-8.8,6-13.2C1090.1,124.3,1089.1,123.6,1088.2,122.9z M1102.8,70.8c0.9,0.7,1,0.7,1.9,1.4c12.6-7.7,21.8-18.7,28.5-31.8
		c1.5-3,2.7-6.4,3.2-9.8c0.3-2.2,0.1-5.4-1.3-6.7c-2.6-2.6-5.3,0-7.3,1.8c-2.1,1.8-4.1,4-5.5,6.4c-6,10.3-11.8,20.7-17.4,31.2
		C1103.7,65.5,1103.5,68.3,1102.8,70.8z M1189.4,113.5c-8.2,5.2-9.6,8.3-7.1,14.6C1190.5,124.4,1191.3,122.8,1189.4,113.5z"/>
	<path fill="#FFFFFF" d="M1031,34.7c-4.7-1.3-9.4-3.1-14.2-3.6c-17.5-1.8-35-3.1-52.5-4.6c-9-0.8-17.5,1.5-25.8,4.6
		c-16.1,6.1-26.6,14-24.3,32.6c0.7,5.3,2.8,11.3,6.2,15.3c9.7,11.3,26,16,32,1.9c4.8-11.1,5.5-22.6-1.6-33.4c-1-1.6-2.5-3.1-2.9-4.8
		c-0.5-2.2-0.9-6,0.1-6.6c2.1-1.2,5.3-1.4,7.7-0.7c1.8,0.5,3.4,2.7,4.6,4.5c10.1,15.4,13.3,31.8,5.8,49.2c-6.3,14.6-23,14.6-38,9.5
		c-22.3-7.6-33.9-32.9-26-55.1c10.5-29.7,29.5-34,57.8-41c22-5.5,43.7-0.5,65.4,2c15.6,1.8,31.1,3.4,46.7,5
		c7.3,0.8,13.5-1.6,19.1-6.4c1.7-1.5,4.4-2.6,6.6-2.5c4.4,0.2,6.4,4.2,4.9,9.2c-3.7,12.9-11,22.6-25,25.4c-3.9,0.8-6.9,1.9-7.4,6.3
		c-0.4,3.2-2.9,5.6-6.1,6c-14.2,1.7-23.9,9.9-30.1,22.2c-8.5,16.8-16.9,33.7-24.4,51c-6.7,15.5-14.5,30-28.3,40.4
		c-20.4,15.3-47.5,11.8-71.9,4.3c-8.5-2.6-16.6-5.7-23.7-11.2c-6.2-4.8-10.7-10.7-13.5-17.8c-2.8-6.9-1-14.4,3.9-18
		c5.3-3.8,13.9-3.5,19.4,0.9c6.6,5.3,9.5,12.3,8.9,20.8c-0.6,9.6,0.1,10.2,9.9,11.9c22.3,3.8,39.7,2.2,48.5-17.3
		c3.5-7.7,6.2-15.8,9.9-23.4c7.4-14.9,14.7-29.9,23.2-44.1c6.5-11,17.4-18,28-24.9c2.5-1.7,5-3.4,7.5-5.1
		C1031.2,36.1,1031.2,35.9,1031,34.7z"/>
	<path fill="#FFFFFF" d="M2535.9,466.8c-1.1,11.6-2.4,23-10.2,32.6c-9.3,11.5-23.2,13.4-35.7,7.7c-15.7-7.1-26.7-26.8-24.6-44.1
		c1-7.7,2.3-15.8,5.6-22.6c5.6-11.6,15.8-17.9,28.9-17.7c13.4,0.2,23.3,7.5,29.6,18.8C2533.7,449.1,2536.4,457.6,2535.9,466.8z"/>
	<path fill="#FFFFFF" d="M1933.5,1098.8"/>
	<path fill="#FFFFFF" d="M1934.8,1109"/>
</g>
</svg>
